<svg width="20" height="21" viewBox="0 0 20 21" fill="none" xmlns="http://www.w3.org/2000/svg">
<path d="M10 0.50001C12.2902 0.496769 14.5116 1.28291 16.29 2.72601C16.4023 2.81697 16.4936 2.93118 16.5575 3.06079C16.6214 3.1904 16.6565 3.33233 16.6603 3.47679C16.6641 3.62126 16.6365 3.76483 16.5795 3.89762C16.5225 4.03042 16.4374 4.14927 16.33 4.24601L14.82 5.60801C14.6485 5.76247 14.4288 5.85284 14.1982 5.86378C13.9676 5.87471 13.7404 5.80555 13.555 5.66801C12.5382 4.92071 11.3118 4.51299 10.05 4.50283C8.78816 4.49266 7.55527 4.88057 6.52661 5.6114C5.49794 6.34222 4.72587 7.37875 4.32019 8.5736C3.9145 9.76845 3.89584 11.0608 4.26687 12.2669C4.6379 13.4729 5.37972 14.5313 6.38686 15.2915C7.394 16.0517 8.61517 16.4751 9.87674 16.5013C11.1383 16.5276 12.3761 16.1555 13.414 15.4378C14.4519 14.7202 15.2371 13.6936 15.658 12.504L15.659 12.5H11.999C11.7542 12.4997 11.5181 12.4097 11.3353 12.247C11.1524 12.0842 11.0356 11.8601 11.007 11.617L11 11.5V9.50001C11 9.23479 11.1054 8.98044 11.2929 8.7929C11.4804 8.60537 11.7348 8.50001 12 8.50001H18.945C19.1912 8.49999 19.4287 8.59079 19.6121 8.755C19.7955 8.91922 19.9119 9.14532 19.939 9.39001C19.979 9.75701 20 10.127 20 10.5C20 16.023 15.523 20.5 10 20.5C4.477 20.5 0 16.023 0 10.5C0 4.97701 4.477 0.50001 10 0.50001Z" fill="white"/>
</svg>
